<svg width="25" height="23" viewBox="0 0 25 23" fill="none" xmlns="http://www.w3.org/2000/svg">
<path d="M20.3125 2.34375C20.3125 1.72215 20.5594 1.12601 20.999 0.686469C21.4385 0.24693 22.0346 0 22.6562 0C23.2779 0 23.874 0.24693 24.3135 0.686469C24.7531 1.12601 25 1.72215 25 2.34375V19.5312C25 20.1529 24.7531 20.749 24.3135 21.1885C23.874 21.6281 23.2779 21.875 22.6562 21.875C22.0346 21.875 21.4385 21.6281 20.999 21.1885C20.5594 20.749 20.3125 20.1529 20.3125 19.5312V2.34375ZM18.75 3.475C15.5203 4.95937 11.6578 5.78906 7.8125 6.0625V15.8078C8.38007 15.8397 8.94687 15.884 9.5125 15.9406C12.7203 16.2594 15.8219 16.9844 18.75 18.3781V3.475ZM6.25 15.7266V6.14688C5.1875 6.18906 4.06406 6.21406 3.1125 6.22969C2.28491 6.24116 1.49493 6.57725 0.912755 7.16556C0.330578 7.75388 0.00278872 8.54733 0 9.375L0 12.5C0 14.2281 1.4 15.6187 3.11562 15.6391L3.89063 15.6516C4.67735 15.6673 5.46386 15.6923 6.25 15.7266ZM8.42187 17.4156C8.86771 17.449 9.31042 17.4896 9.75 17.5375L10.1453 20.1781C10.1883 20.4041 10.1809 20.6368 10.1236 20.8596C10.0663 21.0824 9.96051 21.2897 9.81379 21.4669C9.66707 21.6441 9.48304 21.7867 9.27484 21.8845C9.06664 21.9823 8.83941 22.033 8.60938 22.0328H7.75312C7.44941 22.0328 7.15228 21.9443 6.89809 21.778C6.6439 21.6118 6.44367 21.3751 6.32188 21.0969L4.26875 17.2219C5.15039 17.2439 6.03171 17.2772 6.9125 17.3219C7.42396 17.349 7.92708 17.3802 8.42187 17.4156Z" fill="#A9F1FF"/>
</svg>
