<svg width="35" height="42" viewBox="0 0 35 42" fill="none" xmlns="http://www.w3.org/2000/svg">
<path d="M10.9764 37.1197C11.3965 38.5301 12.2581 39.7667 13.4334 40.6459C14.6086 41.5251 16.0348 42 17.5 42C18.9652 42 20.3914 41.5251 21.5666 40.6459C22.7419 39.7667 23.6035 38.5301 24.0236 37.1197H10.9764ZM0 35.166H35V29.305L31.1111 23.444V13.6757C31.1111 11.8798 30.7591 10.1014 30.075 8.44222C29.391 6.78301 28.3884 5.27542 27.1245 4.00551C25.8606 2.73561 24.3601 1.72827 22.7087 1.041C21.0574 0.353732 19.2874 0 17.5 0C15.7126 0 13.9426 0.353732 12.2913 1.041C10.6399 1.72827 9.1394 2.73561 7.87549 4.00551C6.61158 5.27542 5.60899 6.78301 4.92497 8.44222C4.24095 10.1014 3.88889 11.8798 3.88889 13.6757V23.444L0 29.305V35.166Z" fill="#B4E0F7"/>
</svg>
