<svg width="45" height="42" viewBox="0 0 45 42" fill="none" xmlns="http://www.w3.org/2000/svg">
<path d="M45 19.6875C45 30.5606 34.9256 39.375 22.5 39.375C20.2714 39.38 18.0519 39.0906 15.8991 38.5144C14.2566 39.3469 10.485 40.9444 4.14 41.985C3.5775 42.075 3.15 41.49 3.37219 40.9669C4.36781 38.6156 5.26781 35.4825 5.53781 32.625C2.0925 29.1656 0 24.6375 0 19.6875C0 8.81438 10.0744 0 22.5 0C34.9256 0 45 8.81438 45 19.6875ZM14.0625 19.6875C14.0625 18.9416 13.7662 18.2262 13.2387 17.6988C12.7113 17.1713 11.9959 16.875 11.25 16.875C10.5041 16.875 9.78871 17.1713 9.26126 17.6988C8.73382 18.2262 8.4375 18.9416 8.4375 19.6875C8.4375 20.4334 8.73382 21.1488 9.26126 21.6762C9.78871 22.2037 10.5041 22.5 11.25 22.5C11.9959 22.5 12.7113 22.2037 13.2387 21.6762C13.7662 21.1488 14.0625 20.4334 14.0625 19.6875ZM25.3125 19.6875C25.3125 18.9416 25.0162 18.2262 24.4887 17.6988C23.9613 17.1713 23.2459 16.875 22.5 16.875C21.7541 16.875 21.0387 17.1713 20.5113 17.6988C19.9838 18.2262 19.6875 18.9416 19.6875 19.6875C19.6875 20.4334 19.9838 21.1488 20.5113 21.6762C21.0387 22.2037 21.7541 22.5 22.5 22.5C23.2459 22.5 23.9613 22.2037 24.4887 21.6762C25.0162 21.1488 25.3125 20.4334 25.3125 19.6875ZM33.75 22.5C34.4959 22.5 35.2113 22.2037 35.7387 21.6762C36.2662 21.1488 36.5625 20.4334 36.5625 19.6875C36.5625 18.9416 36.2662 18.2262 35.7387 17.6988C35.2113 17.1713 34.4959 16.875 33.75 16.875C33.0041 16.875 32.2887 17.1713 31.7613 17.6988C31.2338 18.2262 30.9375 18.9416 30.9375 19.6875C30.9375 20.4334 31.2338 21.1488 31.7613 21.6762C32.2887 22.2037 33.0041 22.5 33.75 22.5Z" fill="#A9F1FF"/>
</svg>
