<svg width="6" height="19" viewBox="0 0 6 19" fill="none" xmlns="http://www.w3.org/2000/svg">
<path fill-rule="evenodd" clip-rule="evenodd" d="M5.58358 18.9226C5.40582 19.0094 5.19997 19.0238 5.0113 18.9627C4.82262 18.9016 4.66659 18.77 4.57751 18.5968L0.0794407 9.82984C0.027201 9.72825 -8.57264e-08 9.61618 -8.57264e-08 9.50254C-8.57264e-08 9.38891 0.027201 9.27684 0.0794407 9.17525L4.57751 0.408338C4.62115 0.321807 4.68193 0.244549 4.75635 0.18102C4.83078 0.11749 4.91737 0.0689446 5.01114 0.0381826C5.1049 0.00742065 5.20399 -0.00494929 5.30269 0.00178538C5.40138 0.00852004 5.49773 0.0342265 5.58619 0.0774225C5.67464 0.120619 5.75345 0.180449 5.81806 0.253466C5.88267 0.326483 5.93181 0.411242 5.96265 0.502855C5.99349 0.594468 6.00542 0.691125 5.99774 0.787251C5.99007 0.883377 5.96294 0.977072 5.91793 1.06293L1.58929 9.50254L5.91793 17.9422C6.007 18.1154 6.02181 18.316 5.95911 18.4999C5.89641 18.6837 5.76132 18.8358 5.58358 18.9226Z" fill="#CBCBCB"/>
</svg>
