<svg width="6" height="19" viewBox="0 0 6 19" fill="none" xmlns="http://www.w3.org/2000/svg">
<path fill-rule="evenodd" clip-rule="evenodd" d="M0.416424 0.0774122C0.594176 -0.00938657 0.80003 -0.0238206 0.988702 0.0372851C1.17738 0.0983907 1.33341 0.230031 1.42249 0.403249L5.92056 9.17016C5.9728 9.27175 6 9.38382 6 9.49746C6 9.61109 5.9728 9.72316 5.92056 9.82475L1.42249 18.5917C1.37885 18.6782 1.31807 18.7555 1.24365 18.819C1.16922 18.8825 1.08263 18.9311 0.988864 18.9618C0.895097 18.9926 0.79601 19.0049 0.697314 18.9982C0.598618 18.9915 0.502265 18.9658 0.413812 18.9226C0.325359 18.8794 0.246555 18.8196 0.181942 18.7465C0.11733 18.6735 0.0681879 18.5888 0.0373489 18.4971C0.00650982 18.4055 -0.00541588 18.3089 0.00225917 18.2127C0.00993422 18.1166 0.0370582 18.0229 0.0820675 17.9371L4.41071 9.49746L0.0820675 1.05784C-0.00700087 0.884622 -0.0218127 0.684013 0.0408907 0.500148C0.103594 0.316283 0.238677 0.164221 0.416424 0.0774122Z" fill="#CBCBCB"/>
</svg>
