<svg width="29" height="29" viewBox="0 0 29 29" fill="none" xmlns="http://www.w3.org/2000/svg">
<path d="M22.8968 0.938489C23.1723 0.647174 23.5035 0.414054 23.8707 0.252909C24.2378 0.0917648 24.6336 0.00586591 25.0345 0.000290072C25.4355 -0.00528577 25.8335 0.0695746 26.205 0.220446C26.5765 0.371318 26.914 0.595139 27.1976 0.87868C27.4811 1.16222 27.7049 1.49973 27.8558 1.87125C28.0067 2.24277 28.0815 2.64077 28.076 3.04172C28.0704 3.44266 27.9845 3.83843 27.8234 4.20561C27.6622 4.57279 27.4291 4.90394 27.1378 5.17949L18.3478 13.9695C18.3361 13.9811 18.3269 13.9949 18.3206 14.0101C18.3143 14.0253 18.311 14.0415 18.311 14.058C18.311 14.0744 18.3143 14.0907 18.3206 14.1059C18.3269 14.1211 18.3361 14.1349 18.3478 14.1465L27.1378 22.9365C27.4201 23.2142 27.6447 23.5451 27.7985 23.91C27.9523 24.2749 28.0324 24.6667 28.034 25.0627C28.0357 25.4587 27.9589 25.8511 27.8082 26.2173C27.6574 26.5835 27.4356 26.9163 27.1556 27.1963C26.8756 27.4764 26.5429 27.6982 26.1768 27.8491C25.8106 27.9999 25.4182 28.0768 25.0222 28.0752C24.6262 28.0737 24.2344 27.9937 23.8694 27.84C23.5045 27.6862 23.1735 27.4618 22.8958 27.1795L14.1058 18.3895C14.0942 18.3778 14.0804 18.3686 14.0652 18.3623C14.05 18.356 14.0337 18.3528 14.0173 18.3528C14.0008 18.3528 13.9845 18.356 13.9694 18.3623C13.9542 18.3686 13.9404 18.3778 13.9288 18.3895L5.13877 27.1795C4.86106 27.4618 4.53021 27.6864 4.16528 27.8402C3.80036 27.994 3.40859 28.0741 3.01257 28.0757C2.61655 28.0774 2.22412 28.0006 1.85792 27.8499C1.49172 27.6991 1.15899 27.4773 0.87893 27.1973C0.598867 26.9173 0.377013 26.5847 0.226165 26.2185C0.0753158 25.8523 -0.00154226 25.4599 2.34485e-05 25.0639C0.00158915 24.6679 0.0815478 24.2761 0.235287 23.9111C0.389027 23.5462 0.613504 23.2153 0.895771 22.9375L9.68577 14.1475C9.69741 14.1359 9.70665 14.1221 9.71295 14.1069C9.71925 14.0917 9.7225 14.0754 9.7225 14.059C9.7225 14.0425 9.71925 14.0263 9.71295 14.0111C9.70665 13.9959 9.69741 13.9821 9.68577 13.9705L0.895771 5.18049C0.340663 4.6164 0.0309415 3.85581 0.0340705 3.0644C0.0371994 2.27299 0.352926 1.51487 0.912477 0.955191C1.47203 0.395508 2.23007 0.0796027 3.02148 0.0762872C3.81289 0.0729717 4.57355 0.382514 5.13777 0.937489L13.9278 9.72749C13.9394 9.73913 13.9532 9.74837 13.9684 9.75467C13.9836 9.76097 13.9998 9.76421 14.0163 9.76421C14.0327 9.76421 14.049 9.76097 14.0642 9.75467C14.0794 9.74837 14.0932 9.73913 14.1048 9.72749L22.8968 0.938489Z" fill="#E2E2E2"/>
</svg>
