<svg width="25" height="34" viewBox="0 0 25 34" fill="none" xmlns="http://www.w3.org/2000/svg">
<path d="M15.1937 0H4.16667C3.0616 0 2.00179 0.438987 1.22039 1.22039C0.438987 2.00179 0 3.0616 0 4.16667V29.1667C0 30.2717 0.438987 31.3315 1.22039 32.1129C2.00179 32.8943 3.0616 33.3333 4.16667 33.3333H20.8333C21.9384 33.3333 22.9982 32.8943 23.7796 32.1129C24.561 31.3315 25 30.2717 25 29.1667V9.80625C24.9999 9.25376 24.7803 8.72394 24.3896 8.33333L16.6667 0.610417C16.2761 0.219689 15.7462 0.000117995 15.1937 0ZM15.625 7.29167V3.125L21.875 9.375H17.7083C17.1558 9.375 16.6259 9.15551 16.2352 8.76481C15.8445 8.3741 15.625 7.8442 15.625 7.29167ZM16.6667 28.125V15.625C16.6667 15.3487 16.7764 15.0838 16.9718 14.8884C17.1671 14.6931 17.4321 14.5833 17.7083 14.5833H19.7917C20.0679 14.5833 20.3329 14.6931 20.5282 14.8884C20.7236 15.0838 20.8333 15.3487 20.8333 15.625V28.125C20.8333 28.4013 20.7236 28.6662 20.5282 28.8616C20.3329 29.0569 20.0679 29.1667 19.7917 29.1667H17.7083C17.4321 29.1667 17.1671 29.0569 16.9718 28.8616C16.7764 28.6662 16.6667 28.4013 16.6667 28.125ZM11.4583 29.1667C11.1821 29.1667 10.9171 29.0569 10.7218 28.8616C10.5264 28.6662 10.4167 28.4013 10.4167 28.125V19.7917C10.4167 19.5154 10.5264 19.2504 10.7218 19.0551C10.9171 18.8597 11.1821 18.75 11.4583 18.75H13.5417C13.8179 18.75 14.0829 18.8597 14.2782 19.0551C14.4736 19.2504 14.5833 19.5154 14.5833 19.7917V28.125C14.5833 28.4013 14.4736 28.6662 14.2782 28.8616C14.0829 29.0569 13.8179 29.1667 13.5417 29.1667H11.4583ZM5.20833 29.1667C4.93207 29.1667 4.66711 29.0569 4.47176 28.8616C4.27641 28.6662 4.16667 28.4013 4.16667 28.125V23.9583C4.16667 23.6821 4.27641 23.4171 4.47176 23.2218C4.66711 23.0264 4.93207 22.9167 5.20833 22.9167H7.29167C7.56793 22.9167 7.83289 23.0264 8.02824 23.2218C8.22359 23.4171 8.33333 23.6821 8.33333 23.9583V28.125C8.33333 28.4013 8.22359 28.6662 8.02824 28.8616C7.83289 29.0569 7.56793 29.1667 7.29167 29.1667H5.20833Z" fill="#A9F1FF"/>
</svg>
