<svg width="22" height="22" viewBox="0 0 22 22" fill="none" xmlns="http://www.w3.org/2000/svg">
<path d="M15.125 2.0625V3.4375H19.9375C20.1198 3.4375 20.2947 3.50993 20.4236 3.63886C20.5526 3.7678 20.625 3.94266 20.625 4.125C20.625 4.30734 20.5526 4.4822 20.4236 4.61114C20.2947 4.74007 20.1198 4.8125 19.9375 4.8125H19.1977L18.0249 19.47C17.9696 20.1591 17.6567 20.8022 17.1486 21.271C16.6405 21.7399 15.9745 22.0001 15.2831 22H6.71688C6.02552 22.0001 5.35947 21.7399 4.85138 21.271C4.34329 20.8022 4.03043 20.1591 3.97513 19.47L2.80225 4.8125H2.0625C1.88016 4.8125 1.7053 4.74007 1.57636 4.61114C1.44743 4.4822 1.375 4.30734 1.375 4.125C1.375 3.94266 1.44743 3.7678 1.57636 3.63886C1.7053 3.50993 1.88016 3.4375 2.0625 3.4375H6.875V2.0625C6.875 1.51549 7.0923 0.990886 7.47909 0.604092C7.86589 0.217298 8.39049 0 8.9375 0L13.0625 0C13.6095 0 14.1341 0.217298 14.5209 0.604092C14.9077 0.990886 15.125 1.51549 15.125 2.0625ZM8.25 2.0625V3.4375H13.75V2.0625C13.75 1.88016 13.6776 1.7053 13.5486 1.57636C13.4197 1.44743 13.2448 1.375 13.0625 1.375H8.9375C8.75516 1.375 8.5803 1.44743 8.45136 1.57636C8.32243 1.7053 8.25 1.88016 8.25 2.0625ZM6.1875 6.91487L6.875 18.6024C6.87867 18.6937 6.90053 18.7834 6.93929 18.8663C6.97806 18.9491 7.03295 19.0233 7.10076 19.0847C7.16858 19.146 7.24794 19.1932 7.33421 19.2235C7.42049 19.2538 7.51193 19.2665 7.6032 19.261C7.69447 19.2556 7.78373 19.2319 7.86576 19.1915C7.94778 19.1511 8.02092 19.0947 8.08089 19.0257C8.14087 18.9567 8.18647 18.8764 8.21504 18.7896C8.2436 18.7027 8.25455 18.611 8.24725 18.5199L7.55975 6.83237C7.55608 6.74101 7.53422 6.6513 7.49546 6.56849C7.45669 6.48568 7.4018 6.41143 7.33399 6.3501C7.26617 6.28876 7.18681 6.24157 7.10054 6.21128C7.01426 6.18099 6.92282 6.16822 6.83155 6.17371C6.74028 6.17919 6.65102 6.20283 6.56899 6.24324C6.48697 6.28364 6.41383 6.34001 6.35386 6.40902C6.29388 6.47804 6.24828 6.55833 6.21971 6.64519C6.19115 6.73205 6.1802 6.82373 6.1875 6.91487ZM15.1662 6.18887C14.9843 6.17836 14.8056 6.24052 14.6695 6.36171C14.5333 6.48289 14.4509 6.65317 14.4402 6.83513L13.7527 18.5226C13.7468 18.7019 13.8112 18.8763 13.9321 19.0088C14.0531 19.1412 14.2209 19.2212 14.4 19.2316C14.579 19.242 14.7551 19.182 14.8905 19.0645C15.0259 18.9469 15.1101 18.7811 15.125 18.6024L15.8125 6.91487C15.823 6.73292 15.7609 6.55423 15.6397 6.41809C15.5185 6.28195 15.3482 6.19951 15.1662 6.18887ZM11 6.1875C10.8177 6.1875 10.6428 6.25993 10.5139 6.38886C10.3849 6.5178 10.3125 6.69266 10.3125 6.875V18.5625C10.3125 18.7448 10.3849 18.9197 10.5139 19.0486C10.6428 19.1776 10.8177 19.25 11 19.25C11.1823 19.25 11.3572 19.1776 11.4861 19.0486C11.6151 18.9197 11.6875 18.7448 11.6875 18.5625V6.875C11.6875 6.69266 11.6151 6.5178 11.4861 6.38886C11.3572 6.25993 11.1823 6.1875 11 6.1875Z" fill="#FF6262"/>
</svg>
