<svg width="45" height="45" viewBox="0 0 45 45" fill="none" xmlns="http://www.w3.org/2000/svg">
<path d="M24.4884 4.21876C23.961 3.69149 23.2458 3.39529 22.5 3.39529C21.7542 3.39529 21.039 3.69149 20.5116 4.21876L1.81687 22.9106C1.68613 23.0414 1.58241 23.1966 1.51165 23.3674C1.44089 23.5383 1.40447 23.7214 1.40447 23.9063C1.40447 24.0912 1.44089 24.2743 1.51165 24.4451C1.58241 24.6159 1.68613 24.7711 1.81687 24.9019C2.08093 25.1659 2.43907 25.3143 2.8125 25.3143C2.9974 25.3143 3.1805 25.2779 3.35133 25.2071C3.52216 25.1363 3.67738 25.0326 3.80812 24.9019L5.625 23.0822V37.9688C5.625 39.0876 6.06947 40.1607 6.86064 40.9519C7.65181 41.743 8.72487 42.1875 9.84375 42.1875H35.1562C36.2751 42.1875 37.3482 41.743 38.1394 40.9519C38.9305 40.1607 39.375 39.0876 39.375 37.9688V23.0822L41.1919 24.9019C41.4559 25.1659 41.8141 25.3143 42.1875 25.3143C42.5609 25.3143 42.9191 25.1659 43.1831 24.9019C43.4472 24.6378 43.5955 24.2797 43.5955 23.9063C43.5955 23.5328 43.4472 23.1747 43.1831 22.9106L36.5625 16.2928V7.03126C36.5625 6.6583 36.4143 6.30061 36.1506 6.03689C35.8869 5.77316 35.5292 5.62501 35.1562 5.62501H32.3437C31.9708 5.62501 31.6131 5.77316 31.3494 6.03689C31.0857 6.30061 30.9375 6.6583 30.9375 7.03126V10.6678L24.4884 4.21876ZM36.5625 20.2697V37.9688C36.5625 38.3417 36.4143 38.6994 36.1506 38.9631C35.8869 39.2268 35.5292 39.375 35.1562 39.375H9.84375C9.47079 39.375 9.1131 39.2268 8.84938 38.9631C8.58566 38.6994 8.4375 38.3417 8.4375 37.9688V20.2697L22.5 6.20719L36.5625 20.2697Z" fill="#A9F1FF"/>
</svg>
