<svg width="35" height="7" viewBox="0 0 35 7" fill="none" xmlns="http://www.w3.org/2000/svg">
<path d="M28 3.5C28 2.57174 28.3687 1.6815 29.0251 1.02513C29.6815 0.368749 30.5717 0 31.5 0C32.4283 0 33.3185 0.368749 33.9749 1.02513C34.6313 1.6815 35 2.57174 35 3.5C35 4.42826 34.6313 5.3185 33.9749 5.97487C33.3185 6.63125 32.4283 7 31.5 7C30.5717 7 29.6815 6.63125 29.0251 5.97487C28.3687 5.3185 28 4.42826 28 3.5ZM14 3.5C14 2.57174 14.3687 1.6815 15.0251 1.02513C15.6815 0.368749 16.5717 0 17.5 0C18.4283 0 19.3185 0.368749 19.9749 1.02513C20.6313 1.6815 21 2.57174 21 3.5C21 4.42826 20.6313 5.3185 19.9749 5.97487C19.3185 6.63125 18.4283 7 17.5 7C16.5717 7 15.6815 6.63125 15.0251 5.97487C14.3687 5.3185 14 4.42826 14 3.5ZM0 3.5C0 2.57174 0.368749 1.6815 1.02513 1.02513C1.6815 0.368749 2.57174 0 3.5 0C4.42826 0 5.3185 0.368749 5.97487 1.02513C6.63125 1.6815 7 2.57174 7 3.5C7 4.42826 6.63125 5.3185 5.97487 5.97487C5.3185 6.63125 4.42826 7 3.5 7C2.57174 7 1.6815 6.63125 1.02513 5.97487C0.368749 5.3185 0 4.42826 0 3.5Z" fill="#A7A6A6"/>
</svg>
