<svg width="22" height="22" viewBox="0 0 22 22" fill="none" xmlns="http://www.w3.org/2000/svg">
<path d="M20.3197 0.116875C20.4136 0.179626 20.4905 0.264508 20.5437 0.364026C20.5969 0.463544 20.6249 0.574638 20.625 0.6875V11C20.625 11.1373 20.5838 11.2714 20.5069 11.3852C20.4299 11.4989 20.3207 11.5869 20.1932 11.638L20.1891 11.6394L20.1809 11.6435L20.1493 11.6559C19.9685 11.7278 19.7865 11.7966 19.6034 11.8621C19.2404 11.9927 18.7358 12.1688 18.1638 12.3434C17.0418 12.6899 15.5801 13.0625 14.4375 13.0625C13.2729 13.0625 12.309 12.6775 11.4703 12.3406L11.4318 12.3269C10.56 11.9763 9.8175 11.6875 8.9375 11.6875C7.975 11.6875 6.68525 12.0038 5.58663 12.3434C5.09481 12.4969 4.60741 12.6643 4.125 12.8453V21.3125C4.125 21.4948 4.05257 21.6697 3.92364 21.7986C3.7947 21.9276 3.61984 22 3.4375 22C3.25516 22 3.0803 21.9276 2.95136 21.7986C2.82243 21.6697 2.75 21.4948 2.75 21.3125V0.6875C2.75 0.505164 2.82243 0.330295 2.95136 0.201364C3.0803 0.0724328 3.25516 0 3.4375 0C3.61984 0 3.7947 0.0724328 3.92364 0.201364C4.05257 0.330295 4.125 0.505164 4.125 0.6875V1.07525C4.43575 0.966625 4.807 0.8415 5.21125 0.71775C6.33325 0.374 7.79625 0 8.9375 0C10.0925 0 11.033 0.380875 11.8539 0.713625L11.913 0.738375C12.7682 1.0835 13.5135 1.375 14.4375 1.375C15.4 1.375 16.6898 1.05875 17.7884 0.719125C18.4143 0.523147 19.033 0.304841 19.6433 0.064625L19.6694 0.055L19.6749 0.05225H19.6763" fill="#85BCED"/>
</svg>
